:SAMPLES-PER-SECOND 30
:FRAME-RANGE 1-2775
:FULLY-SPECIFIED
:DEGREES
781
root  4.64997 39.3468 26.893 172.611 81.5 165.584
RightUpLeg  -10.4588 2.29192 4.69801
RightLeg  14.3132 10.7134 2.52761
RightFoot  -22.833 0.756874 9.04811
RightToes  1.218e-010 1.26228e-014 -6.01869e-014
Spine  0.267391 4.58171 8.9719
Spine1  11.3728 5.98496 -4.74839
HEad  4.32152 34.0935 -5.83259
LeftShoulder1  1.65208 -2.2427 -23.7941
LeftArm  0.597175 12.8314 -50.7648
LeftForeArm  37.454 -4.43676 -12.6592
LeftHand  -0.0514831 4.45348 3.81737
RightShoulder  3.31395 6.93519 26.4337
RightArm  -13.2011 20.1254 69.9169
RightForeArm  77.8176 -5.67507 7.72322
RightHand  0.313471 -7.85909 -15.6591
LeftUpLeg  -30.3892 -10.4522 2.77542
LeftLeg  9.43199 -19.9223 0.45802
LeftFoot  3.37844 1.28622 -10.0981
LeftToes  5.08156e-010 -6.90346e-011 -6.33378e-011
782
root  5.04937 39.2928 27.1051 162.413 85.7289 154.95
RightUpLeg  -9.99486 2.80365 5.07883
RightLeg  13.9656 14.3546 3.32879
RightFoot  -23.627 0.879883 9.64855
RightToes  1.218e-010 1.26228e-014 -6.01869e-014
Spine  0.234017 4.89895 8.97702
Spine1  11.8127 6.46551 -5.11549
HEad  4.49913 34.9229 -6.32022
LeftShoulder1  1.49641 -1.64083 -24.2911
LeftArm  -1.16883 15.6769 -50.8707
LeftForeArm  36.8692 -3.33922 -12.6744
LeftHand  -0.0541809 4.42834 4.08864
RightShoulder  3.30196 6.95663 26.2414
RightArm  -12.4831 19.6458 69.649
RightForeArm  76.3908 -5.82462 8.28363
RightHand  0.247017 -7.40078 -15.3703
LeftUpLeg  -31.0534 -8.97359 1.53092
LeftLeg  8.52107 -21.9138 0.354275
LeftFoot  2.98952 1.35767 -10.9195
LeftToes  5.08156e-010 -6.90346e-011 -6.33378e-011
783
root  5.51818 39.2171 27.3071 90.8774 88.4601 83.1927
RightUpLeg  -9.38169 3.82889 5.42833
RightLeg  14.0617 17.2907 3.98382
RightFoot  -24.2206 0.998116 10.2791
RightToes  1.218e-010 1.26228e-014 -6.01869e-014
Spine  0.317001 5.11815 9.01483
Spine1  12.156 6.86816 -5.52178
HEad  5.27611 35.8816 -6.77634
LeftShoulder1  1.298 -0.947962 -24.5631
LeftArm  -1.41961 18.2892 -51.0184
LeftForeArm  37.2199 -2.7027 -12.8227
LeftHand  -0.0478875 4.64639 4.14759
RightShoulder  3.25986 6.93618 25.8788
RightArm  -11.6121 19.1483 69.3288
RightForeArm  75.251 -5.96453 8.86578
RightHand  0.195817 -7.04147 -15.093
LeftUpLeg  -31.7236 -8.50323 0.599707
LeftLeg  8.14449 -21.1936 0.406486
LeftFoot  2.81213 1.44545 -11.7496
LeftToes  5.08156e-010 -6.90346e-011 -6.33378e-011
784
root  6.07936 39.0979 27.51 26.2819 85.8517 18.4664
RightUpLeg  -8.78283 5.42367 5.68532
RightLeg  14.7017 19.285 4.64339
RightFoot  -24.5362 1.08497 10.7967
RightToes  1.218e-010 1.26228e-014 -6.01869e-014
Spine  0.37 5.29735 8.92202
Spine1  12.3219 7.14481 -5.72345
HEad  6.569 37.0547 -7.17706
LeftShoulder1  1.12757 -0.35047 -24.9002
LeftArm  -1.00197 20.6662 -50.9768
LeftForeArm  38.3401 -2.22275 -13.0502
LeftHand  -0.0380732 4.93971 3.88311
RightShoulder  3.17525 6.77574 25.529
RightArm  -10.6599 18.6499 68.826
RightForeArm  74.0875 -6.10433 9.44771
RightHand  0.157385 -6.75106 -14.993
LeftUpLeg  -32.2013 -8.04932 -0.411533
LeftLeg  7.84484 -18.5943 0.460304
LeftFoot  2.76176 1.45824 -11.8918
LeftToes  5.08156e-010 -6.90346e-011 -6.33378e-011
785
root  6.73065 38.9738 27.7356 17.2075 82.5164 9.31078
RightUpLeg  -8.07011 6.9515 5.81032
RightLeg  15.4604 20.5947 5.33787
RightFoot  -24.3073 1.06946 10.8389
RightToes  1.218e-010 1.26228e-014 -6.01869e-014
Spine  0.296313 5.46451 8.67386
Spine1  12.4774 7.36376 -5.80077
HEad  7.99238 38.3359 -7.62035
LeftShoulder1  1.01875 0.0223437 -25.0943
LeftArm  -0.533008 22.8144 -50.9982
LeftForeArm  39.9526 -1.7986 -13.2588
LeftHand  -0.0288096 5.26385 3.73947
RightShoulder  3.08795 6.58777 25.2292
RightArm  -9.58196 18.1887 67.9314
RightForeArm  71.9795 -5.61982 10.1639
RightHand  0.130655 -6.53992 -14.9982
LeftUpLeg  -32.315 -7.17827 -1.69259
LeftLeg  7.28704 -13.8091 0.541971
LeftFoot  2.36933 1.52739 -12.783
LeftToes  5.08156e-010 -6.90346e-011 -6.33378e-011
786
root  7.48799 38.8381 27.9761 14.4915 79.529 6.44432
RightUpLeg  -7.1602 8.24387 5.82701
RightLeg  16.04 21.7576 6.00288
RightFoot  -24.1636 1.06362 10.9005
RightToes  1.218e-010 1.26228e-014 -6.01869e-014
Spine  -0.0868029 5.42846 8.50475
Spine1  12.708 7.41501 -6.0997
HEad  9.14865 39.9815 -8.00132
LeftShoulder1  0.919647 0.346384 -25.1437
LeftArm  0.0225966 25.0849 -50.9442
LeftForeArm  41.2042 -2.15819 -13.3279
LeftHand  -0.0260223 5.37584 3.45426
RightShoulder  3.00872 6.45705 24.8141
RightArm  -9.24707 17.4456 67.2024
RightForeArm  70.3934 -3.63922 10.6497
RightHand  0.098746 -6.26506 -15.3359
LeftUpLeg  -32.2026 -6.53101 -3.04056
LeftLeg  6.83969 -7.59338 0.667744
LeftFoot  1.3821 1.49449 -13.4312
LeftToes  5.08156e-010 -6.90346e-011 -6.33378e-011
787
root  8.33732 38.6854 28.2769 12.9306 76.8753 4.63257
RightUpLeg  -6.19773 9.70345 6.00782
RightLeg  16.7893 22.7726 6.74638
RightFoot  -24.3768 0.960726 9.83945
RightToes  1.218e-010 1.26228e-014 -6.01869e-014
Spine  -0.429467 5.34337 8.21162
Spine1  12.56 7.3395 -6.27754
HEad  9.87488 41.9131 -8.34981
LeftShoulder1  0.812811 0.677133 -24.9813
LeftArm  0.984491 27.0765 -50.7832
LeftForeArm  41.68 -2.76517 -13.3933
LeftHand  -0.0234492 5.49505 3.26121
RightShoulder  2.87108 6.14247 24.3569
RightArm  -9.12874 16.4881 66.5871
RightForeArm  68.4562 -1.68076 10.9929
RightHand  0.0591137 -5.94411 -15.6795
LeftUpLeg  -32.0701 -5.84792 -4.13802
LeftLeg  6.95408 -1.30737 0.561707
LeftFoot  0.449328 1.42269 -13.7523
LeftToes  5.08156e-010 -6.90346e-011 -6.33378e-011
